<svg xmlns="http://www.w3.org/2000/svg" width="51.23" height="35.861" viewBox="0 0 51.23 35.861">
  <defs>
    <style>
      .cls-1 {
        fill: #2ae41c;
      }
    </style>
  </defs>
  <path id="Icon_awesome-truck-moving" data-name="Icon awesome-truck-moving" class="cls-1" d="M49.734,18.684,45.051,14a5.125,5.125,0,0,0-3.626-1.5h-3V4.812A2.559,2.559,0,0,0,35.861,2.25H2.562A2.559,2.559,0,0,0,0,4.812v26.9a6.388,6.388,0,0,0,11.527,3.81,6.388,6.388,0,0,0,11.527-3.81,6.746,6.746,0,0,0-.128-1.281H35.989a6.152,6.152,0,0,0-.128,1.281,6.4,6.4,0,0,0,12.808,0,6.746,6.746,0,0,0-.128-1.281H49.95a1.285,1.285,0,0,0,1.281-1.281V22.3A5.106,5.106,0,0,0,49.734,18.684ZM6.4,34.269a2.562,2.562,0,1,1,2.562-2.562A2.569,2.569,0,0,1,6.4,34.269Zm10.246,0a2.562,2.562,0,1,1,2.562-2.562A2.569,2.569,0,0,1,16.65,34.269ZM38.423,16.338h3a1.272,1.272,0,0,1,.9.376L45.8,20.181H38.423Zm3.842,17.931a2.562,2.562,0,1,1,2.562-2.562A2.569,2.569,0,0,1,42.265,34.269Z" transform="translate(0 -2.25)"/>
</svg>
