<svg xmlns="http://www.w3.org/2000/svg" width="61.209" height="31.204" viewBox="0 0 61.209 31.204">
  <g id="Grupo_31" data-name="Grupo 31" transform="translate(-25.833 -24.296)">
    <path id="_3" data-name="3" d="M13.95,3.375H8.25a1.5,1.5,0,0,0-1.5,1.5v12.6a1.5,1.5,0,0,0,1.5,1.5h9a1.5,1.5,0,0,0,1.5-1.5v-9.3Zm-.6,5.4v-4.2l4.2,4.2Z" transform="translate(19.083 28.723)" fill="#fff"/>
    <path id="_2" data-name="2" d="M13.95,3.375H8.25a1.5,1.5,0,0,0-1.5,1.5v12.6a1.5,1.5,0,0,0,1.5,1.5h9a1.5,1.5,0,0,0,1.5-1.5v-9.3Zm-.6,5.4v-4.2l4.2,4.2Z" transform="translate(68.292 28.723)" fill="#fff"/>
    <path id="_1" data-name="1" d="M21.152,3.375H9.75a3,3,0,0,0-3,3v25.2a3,3,0,0,0,3,3h18a3,3,0,0,0,3-3v-18.6Zm-1.2,10.8v-8.4l8.4,8.4Z" transform="translate(37.687 20.921)" fill="#fff"/>
  </g>
</svg>
