<svg xmlns="http://www.w3.org/2000/svg" width="38.939" height="31.402" viewBox="0 0 38.939 31.402">
  <g id="_18181325291582545602" data-name="18181325291582545602" opacity="0.7">
    <g id="Grupo_10" data-name="Grupo 10">
      <path id="Trazado_25" data-name="Trazado 25" d="M39.6,3.559c-.359-.359-.538-.359-1.077-.359H15.555a2.55,2.55,0,0,0-1.077.359,2.55,2.55,0,0,0-.359,1.077V8.942H10.531A3.327,3.327,0,0,0,9.275,9.3a2.892,2.892,0,0,0-1.256.718L3.712,14.325c-.179.179-.359.538-.538.718s-.179.538-.359.718a7.772,7.772,0,0,0-.179.9v9.51a2.55,2.55,0,0,0-1.077.359c-.359.359-.359.538-.359,1.077v.538a.386.386,0,0,0,.359.359c.179.179.179.179.359.179s.359.179.538.179H5.507a5.989,5.989,0,0,0,1.615,4.127A5.685,5.685,0,0,0,11.249,34.6a5.989,5.989,0,0,0,4.127-1.615,5.685,5.685,0,0,0,1.615-4.127H25.6a5.989,5.989,0,0,0,1.615,4.127A5.685,5.685,0,0,0,31.346,34.6a5.989,5.989,0,0,0,4.127-1.615,5.685,5.685,0,0,0,1.615-4.127H38.7a.659.659,0,0,0,.538-.179c.179,0,.179-.179.359-.179l.359-.359c0-.179.179-.359.179-.538V4.636ZM13.223,31.013a2.882,2.882,0,0,1-1.974.9,2.873,2.873,0,0,1,0-5.742,2.794,2.794,0,0,1,1.974,4.845Zm.9-13.458H5.507v-.718a.659.659,0,0,1,.179-.538l4.307-4.307a.659.659,0,0,1,.538-.179H14.12Zm19.2,13.458a2.62,2.62,0,1,1,.9-1.974A2.882,2.882,0,0,1,33.32,31.013Z" transform="translate(-1.2 -3.2)" fill="#58585a"/>
    </g>
  </g>
</svg>
